<svg xmlns="http://www.w3.org/2000/svg" version="1.1" xmlns:xlink="http://www.w3.org/1999/xlink" xmlns:svgjs="http://svgjs.dev/svgjs" width="1000" height="1000" viewBox="0 0 1000 1000"><rect width="1000" height="1000" fill="#ffffff"></rect><g transform="matrix(0.7,0,0,0.7,150.11896067415722,381.5012059496946)"><svg viewBox="0 0 356 121" data-background-color="#ffffff" preserveAspectRatio="xMidYMid meet" height="339" width="1000" xmlns="http://www.w3.org/2000/svg" xmlns:xlink="http://www.w3.org/1999/xlink"><g id="tight-bounds" transform="matrix(1,0,0,1,-0.06049999999996203,-0.07710037890032595)"><svg viewBox="0 0 356.12052 121.15420075780065" height="121.15420075780065" width="356.12052"><g><svg viewBox="0 0 356.12052 121.15420075780065" height="121.15420075780065" width="356.12052"><g><svg viewBox="0 0 356.12052 121.15420075780065" height="121.15420075780065" width="356.12052"><g><path d="M0 121.154v-121.154h356.121v121.154z" fill="#000000" stroke="transparent" stroke-width="0" rx="0%" data-fill-palette-color="tertiary"></path><path d="M3.283 117.871v-114.588h349.554v114.588z" fill="#ffffff" stroke="transparent" stroke-width="0" rx="0%" data-fill-palette-color="quaternary"></path><path d="M9.85 111.304v-101.454h336.421v101.454z" fill="#000000" stroke="transparent" stroke-width="0" data-fill-palette-color="tertiary"></path></g><g transform="matrix(1,0,0,1,19.69974,19.69974)" id="textblocktransform"><svg viewBox="0 0 316.72104 81.75472075780065" height="81.75472075780065" width="316.72104" id="textblock"><g><svg viewBox="0 0 316.72104 46.4698026933255" height="46.4698026933255" width="316.72104"><g transform="matrix(1,0,0,1,0,0)"><svg width="316.72104" viewBox="1.6600000858306885 -36.060001373291016 249.0800018310547 36.55000305175781" height="46.4698026933255" data-palette-color="#ffffff"><path d="M21.44-9.38L21.44-9.38Q21.44-10.57 20.92-11.45 20.41-12.33 18.96-13.12 17.5-13.92 14.67-14.82L14.67-14.82Q12.28-15.6 10.12-16.59 7.96-17.58 6.3-18.9 4.64-20.21 3.69-21.97 2.73-23.73 2.73-26.07L2.73-26.07Q2.73-29.08 4.44-31.31 6.15-33.54 9.14-34.79 12.13-36.04 15.99-36.04L15.99-36.04Q19.95-36.04 22.9-34.64 25.85-33.25 27.48-30.77 29.1-28.3 29.1-25.05L29.1-25.05 21.46-25.05Q21.46-26.49 20.85-27.6 20.24-28.71 19.01-29.33 17.77-29.96 15.87-29.96L15.87-29.96Q14.04-29.96 12.82-29.42 11.6-28.88 11-28 10.4-27.12 10.4-26.03L10.4-26.03Q10.4-24.88 11.21-24.02 12.01-23.17 13.55-22.45 15.09-21.73 17.29-21.04L17.29-21.04Q21.17-19.87 23.8-18.29 26.44-16.7 27.77-14.54 29.1-12.38 29.1-9.42L29.1-9.42Q29.1-6.3 27.5-4.08 25.9-1.86 23-0.68 20.09 0.49 16.16 0.49L16.16 0.49Q13.48 0.49 10.9-0.21 8.33-0.9 6.24-2.36 4.15-3.81 2.91-6.03 1.66-8.25 1.66-11.3L1.66-11.3 9.35-11.3Q9.35-9.72 9.83-8.63 10.3-7.54 11.19-6.86 12.08-6.18 13.34-5.87 14.6-5.57 16.16-5.57L16.16-5.57Q17.99-5.57 19.15-6.07 20.31-6.57 20.87-7.43 21.44-8.3 21.44-9.38ZM41.6-35.55L41.6 0 33.91 0 33.91-35.55 41.6-35.55ZM62.84-35.55L48.85-17.77 40.65-8.91 39.26-16.38 44.7-24.07 53.42-35.55 62.84-35.55ZM54.03 0L43.94-16.19 49.63-21 63.13 0 54.03 0ZM73.85-35.55L73.85 0 66.18 0 66.18-35.55 73.85-35.55ZM109.54-35.55L109.54 0 101.87 0 88.08-22.88 88.08 0 80.41 0 80.41-35.55 88.08-35.55 101.9-12.65 101.9-35.55 109.54-35.55ZM148.67-11.91L156.31-11.91Q156.09-8.3 154.33-5.49 152.58-2.69 149.44-1.1 146.3 0.49 141.91 0.49L141.91 0.49Q137.32 0.49 134-1.6 130.68-3.69 128.89-7.54 127.11-11.4 127.11-16.67L127.11-16.67 127.11-18.85Q127.11-24.15 128.95-28 130.8-31.86 134.12-33.96 137.44-36.06 141.96-36.06L141.96-36.06Q146.45-36.06 149.54-34.41 152.62-32.76 154.32-29.91 156.02-27.05 156.36-23.39L156.36-23.39 148.69-23.39Q148.47-26.51 147-28.14 145.52-29.76 141.96-29.76L141.96-29.76Q139.59-29.76 138.02-28.61 136.46-27.47 135.68-25.06 134.9-22.66 134.9-18.9L134.9-18.9 134.9-16.67Q134.9-12.99 135.6-10.57 136.29-8.15 137.83-6.97 139.37-5.79 141.91-5.79L141.91-5.79Q144.13-5.79 145.57-6.46 147.01-7.13 147.77-8.5 148.52-9.86 148.67-11.91L148.67-11.91ZM175.64-28.81L166.17 0 157.99 0 171.2-35.55 176.38-35.55 175.64-28.81ZM183.41 0L173.91-28.81 173.11-35.55 178.31-35.55 191.59 0 183.41 0ZM183.16-13.28L183.16-7.08 164.32-7.08 164.32-13.28 183.16-13.28ZM194.76-35.55L208.14-35.55Q212.26-35.55 215.23-34.31 218.2-33.08 219.78-30.7 221.37-28.32 221.37-24.8L221.37-24.8Q221.37-21.88 220.4-19.82 219.44-17.77 217.71-16.43 215.97-15.09 213.63-14.26L213.63-14.26 211.19-12.87 199.79-12.87 199.74-19.07 208.11-19.07Q209.97-19.07 211.21-19.69 212.46-20.31 213.07-21.46 213.68-22.61 213.68-24.17L213.68-24.17Q213.68-26.56 212.32-27.95 210.97-29.35 208.14-29.35L208.14-29.35 202.42-29.35 202.42 0 194.76 0 194.76-35.55ZM214.44 0L206.43-15.8 214.53-15.84 222.66-0.37 222.66 0 214.44 0ZM250.74-6.18L250.74 0 231.96 0 231.96-6.18 250.74-6.18ZM234.43-35.55L234.43 0 226.74 0 226.74-35.55 234.43-35.55ZM248.3-21.26L248.3-15.28 231.96-15.28 231.96-21.26 248.3-21.26ZM250.71-35.55L250.71-29.35 231.96-29.35 231.96-35.55 250.71-35.55Z" opacity="1" transform="matrix(1,0,0,1,0,0)" fill="#ffffff" class="wordmark-text-0" data-fill-palette-color="quaternary" id="text-0"></path></svg></g></svg></g><g transform="matrix(1,0,0,1,0,53.0363826933255)"><svg viewBox="0 0 316.72104 28.71833806447516" height="28.71833806447516" width="316.72104"><g transform="matrix(1,0,0,1,0,0)"><svg width="316.72104" viewBox="4.699999809265137 -37 518.3399658203125 47" height="28.71833806447516" data-palette-color="#ffffff"><path d="M6.25 0L6.25 0Q5.55 0 5.13-0.45 4.7-0.9 4.7-1.5L4.7-1.5 4.7-33.5Q4.7-34.1 5.15-34.55 5.6-35 6.2-35L6.2-35 24.4-35Q25.05-35 25.48-34.58 25.9-34.15 25.9-33.5L25.9-33.5Q25.9-32.9 25.48-32.48 25.05-32.05 24.4-32.05L24.4-32.05 7.55-32.05 7.75-32.35 7.75-19.05 7.5-19.5 22.15-19.5Q22.8-19.5 23.23-19.07 23.65-18.65 23.65-18.05L23.65-18.05Q23.65-17.4 23.23-17 22.8-16.6 22.15-16.6L22.15-16.6 7.4-16.6 7.75-17 7.75-1.5Q7.75-0.9 7.33-0.45 6.9 0 6.25 0ZM56.02-12.8L56.02-12.8Q56.02-9 54.34-5.98 52.67-2.95 49.82-1.23 46.97 0.5 43.37 0.5L43.37 0.5Q39.82 0.5 36.94-1.23 34.07-2.95 32.39-5.98 30.72-9 30.72-12.8L30.72-12.8Q30.72-16.65 32.39-19.65 34.07-22.65 36.94-24.4 39.82-26.15 43.37-26.15L43.37-26.15Q46.97-26.15 49.82-24.4 52.67-22.65 54.34-19.65 56.02-16.65 56.02-12.8ZM53.02-12.8L53.02-12.8Q53.02-15.85 51.77-18.23 50.52-20.6 48.34-21.98 46.17-23.35 43.37-23.35L43.37-23.35Q40.62-23.35 38.44-21.98 36.27-20.6 34.99-18.23 33.72-15.85 33.72-12.8L33.72-12.8Q33.72-9.75 34.99-7.4 36.27-5.05 38.44-3.68 40.62-2.3 43.37-2.3L43.37-2.3Q46.17-2.3 48.34-3.68 50.52-5.05 51.77-7.4 53.02-9.75 53.02-12.8ZM64.58 0L64.58 0Q63.88 0 63.48-0.45 63.08-0.9 63.08-1.5L63.08-1.5 63.08-23.9Q63.08-24.5 63.51-24.95 63.93-25.4 64.58-25.4L64.58-25.4Q65.23-25.4 65.66-24.95 66.08-24.5 66.08-23.9L66.08-23.9 66.08-16.4 65.33-16.25Q65.48-18 66.21-19.73 66.93-21.45 68.18-22.9 69.43-24.35 71.16-25.25 72.88-26.15 75.03-26.15L75.03-26.15Q75.93-26.15 76.78-25.78 77.63-25.4 77.63-24.55L77.63-24.55Q77.63-23.8 77.23-23.4 76.83-23 76.28-23L76.28-23Q75.83-23 75.31-23.25 74.78-23.5 73.93-23.5L73.93-23.5Q72.53-23.5 71.13-22.68 69.73-21.85 68.58-20.45 67.43-19.05 66.76-17.32 66.08-15.6 66.08-13.85L66.08-13.85 66.08-1.5Q66.08-0.9 65.63-0.45 65.18 0 64.58 0ZM96.16-25.45L96.16-25.45 107.81-25.45Q108.41-25.45 108.81-25.03 109.21-24.6 109.21-24L109.21-24Q109.21-23.45 108.81-23.05 108.41-22.65 107.81-22.65L107.81-22.65 96.16-22.65Q95.56-22.65 95.14-23.08 94.71-23.5 94.71-24.05L94.71-24.05Q94.71-24.65 95.14-25.05 95.56-25.45 96.16-25.45ZM101.31-32.5L101.31-32.5Q101.96-32.5 102.39-32.05 102.81-31.6 102.81-31L102.81-31 102.81-5.9Q102.81-4.5 103.19-3.8 103.56-3.1 104.16-2.88 104.76-2.65 105.36-2.65L105.36-2.65Q105.76-2.65 106.09-2.78 106.41-2.9 106.81-2.9L106.81-2.9Q107.26-2.9 107.59-2.55 107.91-2.2 107.91-1.65L107.91-1.65Q107.91-0.95 107.11-0.48 106.31 0 105.21 0L105.21 0Q104.76 0 103.86-0.08 102.96-0.15 102.01-0.63 101.06-1.1 100.44-2.3 99.81-3.5 99.81-5.75L99.81-5.75 99.81-31Q99.81-31.6 100.24-32.05 100.66-32.5 101.31-32.5ZM127.33-25.75L127.33-25.75Q130.48-25.75 132.43-24.4 134.38-23.05 135.31-20.75 136.23-18.45 136.23-15.65L136.23-15.65 136.23-1.5Q136.23-0.9 135.78-0.45 135.33 0 134.73 0L134.73 0Q134.03 0 133.63-0.45 133.23-0.9 133.23-1.5L133.23-1.5 133.23-15.65Q133.23-17.7 132.61-19.35 131.98-21 130.58-21.98 129.18-22.95 126.83-22.95L126.83-22.95Q124.73-22.95 122.86-21.98 120.98-21 119.83-19.35 118.68-17.7 118.68-15.65L118.68-15.65 118.68-1.5Q118.68-0.9 118.23-0.45 117.78 0 117.18 0L117.18 0Q116.48 0 116.08-0.45 115.68-0.9 115.68-1.5L115.68-1.5 115.68-35.5Q115.68-36.1 116.11-36.55 116.53-37 117.18-37L117.18-37Q117.83-37 118.26-36.55 118.68-36.1 118.68-35.5L118.68-35.5 118.68-19.3 117.53-17.55Q117.63-19.1 118.51-20.58 119.38-22.05 120.78-23.23 122.18-24.4 123.88-25.08 125.58-25.75 127.33-25.75ZM156.35 0.5L156.35 0.5Q152.5 0.5 149.55-1.15 146.6-2.8 144.95-5.75 143.3-8.7 143.3-12.65L143.3-12.65Q143.3-16.9 144.97-19.9 146.65-22.9 149.32-24.53 152-26.15 155-26.15L155-26.15Q157.2-26.15 159.27-25.38 161.35-24.6 162.95-23.08 164.55-21.55 165.55-19.35 166.55-17.15 166.6-14.25L166.6-14.25Q166.6-13.65 166.15-13.23 165.7-12.8 165.1-12.8L165.1-12.8 145.05-12.8 144.45-15.5 164.15-15.5 163.5-14.9 163.5-15.9Q163.25-18.25 161.95-19.9 160.65-21.55 158.82-22.4 157-23.25 155-23.25L155-23.25Q153.5-23.25 151.92-22.65 150.35-22.05 149.07-20.78 147.8-19.5 147-17.53 146.2-15.55 146.2-12.85L146.2-12.85Q146.2-9.9 147.4-7.5 148.6-5.1 150.85-3.7 153.1-2.3 156.3-2.3L156.3-2.3Q158-2.3 159.4-2.8 160.8-3.3 161.87-4.13 162.95-4.95 163.65-5.85L163.65-5.85Q164.2-6.3 164.7-6.3L164.7-6.3Q165.25-6.3 165.62-5.9 166-5.5 166-5L166-5Q166-4.4 165.5-3.95L165.5-3.95Q164-2.15 161.6-0.83 159.2 0.5 156.35 0.5ZM191.58-35.5L191.58-1.5Q191.58-0.9 191.13-0.45 190.68 0 190.08 0L190.08 0Q189.43 0 189-0.45 188.58-0.9 188.58-1.5L188.58-1.5 188.58-35.5Q188.58-36.1 189.03-36.55 189.48-37 190.08-37L190.08-37Q190.73-37 191.15-36.55 191.58-36.1 191.58-35.5L191.58-35.5ZM223.8-12.8L223.8-12.8Q223.8-9 222.12-5.98 220.45-2.95 217.6-1.23 214.75 0.5 211.15 0.5L211.15 0.5Q207.6 0.5 204.72-1.23 201.85-2.95 200.17-5.98 198.5-9 198.5-12.8L198.5-12.8Q198.5-16.65 200.17-19.65 201.85-22.65 204.72-24.4 207.6-26.15 211.15-26.15L211.15-26.15Q214.75-26.15 217.6-24.4 220.45-22.65 222.12-19.65 223.8-16.65 223.8-12.8ZM220.8-12.8L220.8-12.8Q220.8-15.85 219.55-18.23 218.3-20.6 216.12-21.98 213.95-23.35 211.15-23.35L211.15-23.35Q208.4-23.35 206.22-21.98 204.05-20.6 202.77-18.23 201.5-15.85 201.5-12.8L201.5-12.8Q201.5-9.75 202.77-7.4 204.05-5.05 206.22-3.68 208.4-2.3 211.15-2.3L211.15-2.3Q213.95-2.3 216.12-3.68 218.3-5.05 219.55-7.4 220.8-9.75 220.8-12.8ZM230.01-26.1L230.01-26.1Q230.41-26.1 230.81-25.85 231.21-25.6 231.41-25.1L231.41-25.1 240.16-4.3 239.51-3.9 248.46-25.1Q248.86-26.1 249.91-26.05L249.91-26.05Q250.41-26.05 250.86-25.73 251.31-25.4 251.31-24.8L251.31-24.8Q251.31-24.5 251.24-24.33 251.16-24.15 251.11-23.95L251.11-23.95 241.31-0.95Q240.91-0.05 239.96 0L239.96 0Q239.51 0.05 239.09-0.23 238.66-0.5 238.46-0.95L238.46-0.95 228.61-23.95Q228.56-24.05 228.51-24.25 228.46-24.45 228.46-24.65L228.46-24.65Q228.46-25.2 228.86-25.65 229.26-26.1 230.01-26.1ZM269.08 0.5L269.08 0.5Q265.23 0.5 262.28-1.15 259.33-2.8 257.68-5.75 256.03-8.7 256.03-12.65L256.03-12.65Q256.03-16.9 257.7-19.9 259.38-22.9 262.05-24.53 264.73-26.15 267.73-26.15L267.73-26.15Q269.93-26.15 272-25.38 274.08-24.6 275.68-23.08 277.28-21.55 278.28-19.35 279.28-17.15 279.33-14.25L279.33-14.25Q279.33-13.65 278.88-13.23 278.43-12.8 277.83-12.8L277.83-12.8 257.78-12.8 257.18-15.5 276.88-15.5 276.23-14.9 276.23-15.9Q275.98-18.25 274.68-19.9 273.38-21.55 271.55-22.4 269.73-23.25 267.73-23.25L267.73-23.25Q266.23-23.25 264.65-22.65 263.08-22.05 261.8-20.78 260.53-19.5 259.73-17.53 258.93-15.55 258.93-12.85L258.93-12.85Q258.93-9.9 260.13-7.5 261.33-5.1 263.58-3.7 265.83-2.3 269.03-2.3L269.03-2.3Q270.73-2.3 272.13-2.8 273.53-3.3 274.6-4.13 275.68-4.95 276.38-5.85L276.38-5.85Q276.93-6.3 277.43-6.3L277.43-6.3Q277.98-6.3 278.35-5.9 278.73-5.5 278.73-5L278.73-5Q278.73-4.4 278.23-3.95L278.23-3.95Q276.73-2.15 274.33-0.83 271.93 0.5 269.08 0.5ZM324.61-12.8L324.61-12.8Q324.61-9 322.94-5.98 321.26-2.95 318.41-1.23 315.56 0.5 311.96 0.5L311.96 0.5Q308.41 0.5 305.54-1.23 302.66-2.95 300.99-5.98 299.31-9 299.31-12.8L299.31-12.8Q299.31-16.65 300.99-19.65 302.66-22.65 305.54-24.4 308.41-26.15 311.96-26.15L311.96-26.15Q315.56-26.15 318.41-24.4 321.26-22.65 322.94-19.65 324.61-16.65 324.61-12.8ZM321.61-12.8L321.61-12.8Q321.61-15.85 320.36-18.23 319.11-20.6 316.94-21.98 314.76-23.35 311.96-23.35L311.96-23.35Q309.21-23.35 307.04-21.98 304.86-20.6 303.59-18.23 302.31-15.85 302.31-12.8L302.31-12.8Q302.31-9.75 303.59-7.4 304.86-5.05 307.04-3.68 309.21-2.3 311.96-2.3L311.96-2.3Q314.76-2.3 316.94-3.68 319.11-5.05 320.36-7.4 321.61-9.75 321.61-12.8ZM340.93-36.8L340.93-36.8Q341.68-36.8 342.55-36.65 343.43-36.5 344.08-36.13 344.73-35.75 344.73-35L344.73-35Q344.73-34.45 344.33-34.02 343.93-33.6 343.43-33.6L343.43-33.6Q342.93-33.6 342.18-33.88 341.43-34.15 340.58-34.15L340.58-34.15Q339.53-34.15 338.78-33.68 338.03-33.2 337.63-32.33 337.23-31.45 337.23-30.2L337.23-30.2 337.23-1.5Q337.23-0.9 336.8-0.45 336.38 0 335.73 0L335.73 0Q335.08 0 334.65-0.45 334.23-0.9 334.23-1.5L334.23-1.5 334.23-30.2Q334.23-33.4 336.1-35.1 337.98-36.8 340.93-36.8ZM330.58-25.05L342.83-25.05Q343.43-25.05 343.83-24.65 344.23-24.25 344.23-23.65L344.23-23.65Q344.23-23.05 343.83-22.65 343.43-22.25 342.83-22.25L342.83-22.25 330.58-22.25Q330.03-22.25 329.6-22.68 329.18-23.1 329.18-23.65L329.18-23.65Q329.18-24.3 329.6-24.68 330.03-25.05 330.58-25.05L330.58-25.05ZM376.96-26.15L376.96-26.15Q380.36-26.15 382.98-24.45 385.61-22.75 387.16-19.78 388.71-16.8 388.71-12.9L388.71-12.9Q388.71-9.1 387.16-6.05 385.61-3 382.96-1.25 380.31 0.5 377.01 0.5L377.01 0.5Q375.26 0.5 373.68-0.05 372.11-0.6 370.81-1.53 369.51-2.45 368.51-3.7 367.51-4.95 366.91-6.4L366.91-6.4 367.81-7.05 367.81-1.4Q367.81-0.75 367.38-0.33 366.96 0.1 366.31 0.1L366.31 0.1Q365.66 0.1 365.23-0.33 364.81-0.75 364.81-1.4L364.81-1.4 364.81-35.45Q364.81-36.1 365.21-36.52 365.61-36.95 366.31-36.95L366.31-36.95Q366.96-36.95 367.38-36.52 367.81-36.1 367.81-35.45L367.81-35.45 367.81-18.7 367.11-19.1Q367.61-20.65 368.58-21.93 369.56-23.2 370.86-24.15 372.16-25.1 373.71-25.63 375.26-26.15 376.96-26.15ZM376.71-23.35L376.71-23.35Q374.01-23.35 371.96-22 369.91-20.65 368.73-18.3 367.56-15.95 367.56-12.9L367.56-12.9Q367.56-9.9 368.73-7.48 369.91-5.05 371.96-3.68 374.01-2.3 376.71-2.3L376.71-2.3Q379.36-2.3 381.38-3.7 383.41-5.1 384.61-7.53 385.81-9.95 385.81-12.9L385.81-12.9Q385.81-15.95 384.61-18.3 383.41-20.65 381.38-22 379.36-23.35 376.71-23.35ZM407.18 0.5L407.18 0.5Q403.33 0.5 400.38-1.15 397.43-2.8 395.78-5.75 394.13-8.7 394.13-12.65L394.13-12.65Q394.13-16.9 395.8-19.9 397.48-22.9 400.15-24.53 402.83-26.15 405.83-26.15L405.83-26.15Q408.03-26.15 410.1-25.38 412.18-24.6 413.78-23.08 415.38-21.55 416.38-19.35 417.38-17.15 417.43-14.25L417.43-14.25Q417.43-13.65 416.98-13.23 416.53-12.8 415.93-12.8L415.93-12.8 395.88-12.8 395.28-15.5 414.98-15.5 414.33-14.9 414.33-15.9Q414.08-18.25 412.78-19.9 411.48-21.55 409.65-22.4 407.83-23.25 405.83-23.25L405.83-23.25Q404.33-23.25 402.75-22.65 401.18-22.05 399.9-20.78 398.63-19.5 397.83-17.53 397.03-15.55 397.03-12.85L397.03-12.85Q397.03-9.9 398.23-7.5 399.43-5.1 401.68-3.7 403.93-2.3 407.13-2.3L407.13-2.3Q408.83-2.3 410.23-2.8 411.63-3.3 412.7-4.13 413.78-4.95 414.48-5.85L414.48-5.85Q415.03-6.3 415.53-6.3L415.53-6.3Q416.08-6.3 416.45-5.9 416.83-5.5 416.83-5L416.83-5Q416.83-4.4 416.33-3.95L416.33-3.95Q414.83-2.15 412.43-0.83 410.03 0.5 407.18 0.5ZM445.49-25.55L445.49-25.55Q446.14-25.55 446.57-25.1 446.99-24.65 446.99-24L446.99-24 446.99-1.5Q446.99-0.9 446.54-0.45 446.09 0 445.49 0L445.49 0Q444.79 0 444.39-0.45 443.99-0.9 443.99-1.5L443.99-1.5 443.99-7.45 444.84-7.85Q444.84-6.45 444.07-5 443.29-3.55 441.94-2.3 440.59-1.05 438.77-0.28 436.94 0.5 434.79 0.5L434.79 0.5Q431.44 0.5 428.77-1.25 426.09-3 424.57-6.05 423.04-9.1 423.04-12.9L423.04-12.9Q423.04-16.8 424.59-19.78 426.14-22.75 428.79-24.45 431.44-26.15 434.74-26.15L434.74-26.15Q436.89-26.15 438.77-25.4 440.64-24.65 442.04-23.35 443.44-22.05 444.24-20.38 445.04-18.7 445.04-16.9L445.04-16.9 443.99-17.65 443.99-24Q443.99-24.65 444.39-25.1 444.79-25.55 445.49-25.55ZM435.09-2.3L435.09-2.3Q437.74-2.3 439.79-3.68 441.84-5.05 443.02-7.48 444.19-9.9 444.19-12.9L444.19-12.9Q444.19-15.85 443.02-18.2 441.84-20.55 439.79-21.95 437.74-23.35 435.09-23.35L435.09-23.35Q432.49-23.35 430.42-22 428.34-20.65 427.17-18.3 425.99-15.95 425.99-12.9L425.99-12.9Q425.99-9.9 427.14-7.48 428.29-5.05 430.37-3.68 432.44-2.3 435.09-2.3ZM474.36-25.4L474.36-25.4Q475.01-25.4 475.43-24.95 475.86-24.5 475.86-23.9L475.86-23.9 475.86-9.8Q475.86-4.85 473.06-2.25 470.26 0.35 465.51 0.35L465.51 0.35Q460.81 0.35 458.03-2.25 455.26-4.85 455.26-9.8L455.26-9.8 455.26-23.9Q455.26-24.5 455.68-24.95 456.11-25.4 456.76-25.4L456.76-25.4Q457.41-25.4 457.83-24.95 458.26-24.5 458.26-23.9L458.26-23.9 458.26-9.8Q458.26-6.2 460.18-4.33 462.11-2.45 465.51-2.45L465.51-2.45Q468.96-2.45 470.91-4.33 472.86-6.2 472.86-9.8L472.86-9.8 472.86-23.9Q472.86-24.5 473.26-24.95 473.66-25.4 474.36-25.4ZM482.97-25.45L482.97-25.45 494.62-25.45Q495.22-25.45 495.62-25.03 496.02-24.6 496.02-24L496.02-24Q496.02-23.45 495.62-23.05 495.22-22.65 494.62-22.65L494.62-22.65 482.97-22.65Q482.37-22.65 481.95-23.08 481.52-23.5 481.52-24.05L481.52-24.05Q481.52-24.65 481.95-25.05 482.37-25.45 482.97-25.45ZM488.12-32.5L488.12-32.5Q488.77-32.5 489.2-32.05 489.62-31.6 489.62-31L489.62-31 489.62-5.9Q489.62-4.5 490-3.8 490.37-3.1 490.97-2.88 491.57-2.65 492.17-2.65L492.17-2.65Q492.57-2.65 492.9-2.78 493.22-2.9 493.62-2.9L493.62-2.9Q494.07-2.9 494.4-2.55 494.72-2.2 494.72-1.65L494.72-1.65Q494.72-0.95 493.92-0.48 493.12 0 492.02 0L492.02 0Q491.57 0 490.67-0.08 489.77-0.15 488.82-0.63 487.87-1.1 487.25-2.3 486.62-3.5 486.62-5.75L486.62-5.75 486.62-31Q486.62-31.6 487.05-32.05 487.47-32.5 488.12-32.5ZM521.54-26L521.54-26Q522.19-26 522.62-25.55 523.04-25.1 523.04-24.5L523.04-24.5 523.04-2.45Q523.04 1.6 521.44 4.38 519.84 7.15 517.14 8.58 514.44 10 510.99 10L510.99 10Q508.84 10 507.02 9.53 505.19 9.05 504.04 8.3L504.04 8.3Q503.44 7.95 503.14 7.45 502.84 6.95 503.09 6.4L503.09 6.4Q503.34 5.7 503.87 5.48 504.39 5.25 504.94 5.5L504.94 5.5Q505.79 5.95 507.39 6.6 508.99 7.25 511.04 7.25L511.04 7.25Q513.79 7.25 515.82 6.1 517.84 4.95 518.94 2.78 520.04 0.6 520.04-2.4L520.04-2.4 520.04-6 520.39-4.8Q519.64-3.25 518.27-2.05 516.89-0.85 515.12-0.18 513.34 0.5 511.34 0.5L511.34 0.5Q508.34 0.5 506.37-0.73 504.39-1.95 503.44-4.1 502.49-6.25 502.49-9.15L502.49-9.15 502.49-24.5Q502.49-25.1 502.89-25.55 503.29-26 503.99-26L503.99-26Q504.64-26 505.07-25.55 505.49-25.1 505.49-24.5L505.49-24.5 505.49-9.6Q505.49-6.1 507.02-4.2 508.54-2.3 511.99-2.3L511.99-2.3Q514.14-2.3 515.94-3.33 517.74-4.35 518.89-6.03 520.04-7.7 520.04-9.6L520.04-9.6 520.04-24.5Q520.04-25.1 520.47-25.55 520.89-26 521.54-26Z" opacity="1" transform="matrix(1,0,0,1,0,0)" fill="#ffffff" class="slogan-text-1" data-fill-palette-color="quaternary" id="text-1"></path></svg></g></svg></g></svg></g></svg></g><g></g></svg></g><defs></defs></svg><rect width="356.12052" height="121.15420075780065" fill="none" stroke="none" visibility="hidden"></rect></g></svg></g></svg>